<?xml version="1.0" encoding="UTF-8"?>
<svg version="1.1" xmlns="http://www.w3.org/2000/svg" width="512" height="512">
<path d="M0 0 C1.01350303 -0.00453111 2.02700605 -0.00906223 3.07122129 -0.01373065 C6.43615454 -0.02629766 9.80092432 -0.02475926 13.1658783 -0.02310181 C15.59146836 -0.02909195 18.01705653 -0.03589861 20.44264221 -0.04345703 C26.33003116 -0.05924971 32.21738238 -0.06556339 38.10478819 -0.06668179 C42.89699708 -0.06763584 47.68919288 -0.07176386 52.48139763 -0.07808304 C66.10427728 -0.09567775 79.72712556 -0.10492493 93.35001666 -0.10342209 C94.44923682 -0.10330222 94.44923682 -0.10330222 95.57066345 -0.10317993 C96.30438443 -0.10309817 97.0381054 -0.10301641 97.79406034 -0.10293217 C109.66996435 -0.10212024 121.54574124 -0.12123903 133.42160852 -0.14945666 C145.65104688 -0.17828221 157.88042345 -0.1919916 170.1098966 -0.19026911 C176.96152366 -0.18960844 183.81301751 -0.19495778 190.66461372 -0.21662521 C197.11535632 -0.23689608 203.56589144 -0.23606518 210.01665115 -0.22159195 C212.3715004 -0.21951473 214.7263676 -0.22413908 217.08118629 -0.23631287 C235.89969825 -0.32722423 252.47771301 1.22189462 269.34532166 10.26742554 C269.98743591 10.60435425 270.62955017 10.94128296 271.29112244 11.28842163 C279.99464727 15.87454943 287.93189624 20.73956289 295.34532166 27.26742554 C296.57122009 28.29609741 296.57122009 28.29609741 297.82188416 29.34555054 C308.73845258 38.74123482 316.87039376 49.4631879 323.34532166 62.26742554 C323.81131775 63.17935669 323.81131775 63.17935669 324.28672791 64.10971069 C328.05285538 71.63211699 330.81922134 79.22476899 332.74302673 87.41390991 C333.05998741 88.7595892 333.05998741 88.7595892 333.38335133 90.13245392 C336.17057909 102.39819732 338.03182321 114.83151224 339.96541572 127.25408745 C340.53104205 130.87528194 341.10658122 134.49490246 341.68096924 138.11471558 C342.77317117 145.00667041 343.85742643 151.8998485 344.93841535 158.79357004 C346.83856641 170.90900671 348.75467889 183.02192941 350.66960824 195.13503742 C351.37694431 199.61037324 352.08245524 204.08599237 352.78665984 208.56182194 C355.1109132 223.32985435 357.46393038 238.09209168 359.91818988 252.83914089 C360.2774748 254.99800565 360.63599046 257.15699695 360.99433994 259.31601715 C362.10796541 266.02075635 363.2298611 272.72392289 364.36526489 279.42501831 C364.76227281 281.80278354 365.15904075 284.18058885 365.55552673 286.55844116 C365.82971278 288.14940361 365.82971278 288.14940361 366.10943794 289.77250671 C367.57016812 298.60623909 367.96045157 306.51473761 365.65782166 315.20492554 C365.47630554 315.89731323 365.29478943 316.58970093 365.10777283 317.30307007 C361.50848648 330.40722343 354.33232172 340.83204834 342.58750916 348.02523804 C328.55133099 355.80137855 314.8860909 356.53860207 299.29063416 353.60726929 C284.14162747 349.00145486 274.42583463 338.12115142 263.64610291 327.11898804 C261.87725065 325.33638208 260.10697779 323.55518476 258.33535767 321.77532959 C254.17633913 317.59080382 250.03056934 313.39352882 245.89155024 309.18922651 C239.79988577 303.00287608 233.68507864 296.83948363 227.57070446 290.67558861 C223.18649979 286.25562394 218.80585037 281.83233233 214.43572998 277.3984375 C213.63587677 276.58863434 212.83602356 275.77883118 212.01193237 274.94448853 C210.51480902 273.42865993 209.01960965 271.91092784 207.5266571 270.39099121 C206.86956253 269.72660034 206.21246796 269.06220947 205.53546143 268.37768555 C204.96424214 267.79775156 204.39302286 267.21781757 203.8044939 266.62030983 C200.82696013 263.85966339 197.97562811 263.95589785 194.03070068 263.61557007 C193.04606433 263.5305092 193.04606433 263.5305092 192.04153633 263.44372994 C189.82793914 263.25598766 187.61378708 263.07687418 185.39927673 262.90023804 C184.62354919 262.83800548 183.84782164 262.77577293 183.0485872 262.71165454 C161.44528142 261.00207793 139.81590258 259.96308595 118.15782166 259.26742554 C116.65788327 259.21778538 116.65788327 259.21778538 115.12764311 259.16714239 C48.49896212 256.34787001 48.49896212 256.34787001 -8.20407104 286.809021 C-22.32379749 300.50074486 -34.69887319 316.39290139 -45.39168262 332.87378025 C-51.90125641 342.9020875 -58.12838117 349.07277438 -69.96717834 352.64242554 C-70.91206116 352.93890991 -71.85694397 353.23539429 -72.83045959 353.54086304 C-86.90267178 357.1611002 -102.42319175 355.76084015 -115.15467834 348.45492554 C-116.67940528 347.42822499 -118.18127203 346.36650701 -119.65467834 345.26742554 C-120.35979553 344.75437866 -121.06491272 344.24133179 -121.79139709 343.71273804 C-130.92968512 336.43692014 -136.85829126 325.77488096 -138.65467834 314.26742554 C-140.08998455 297.04283406 -137.37210531 280.25845592 -134.52967834 263.32992554 C-134.08187105 260.59220049 -133.63990094 257.85354329 -133.19813538 255.11483765 C-132.35611879 249.9057893 -131.50755595 244.697877 -130.65180779 239.49106693 C-128.77712994 228.07942487 -126.96042323 216.65890425 -125.15467834 205.23617554 C-124.5526027 201.42887493 -123.95047136 197.62158314 -123.34828186 193.81430054 C-123.19848908 192.86709641 -123.04869631 191.91989227 -122.89436436 190.94398499 C-121.10757852 179.65179333 -119.30182994 168.36263435 -117.49612236 157.07345581 C-115.89344855 147.05252797 -114.29894469 137.03048513 -112.72975159 127.0042572 C-112.01610221 122.45237835 -111.29422308 117.90183434 -110.57002258 113.35162354 C-110.25921544 111.38620204 -109.95216719 109.42018119 -109.64949036 107.45349121 C-107.41295811 92.93377928 -104.85468583 77.9588808 -97.77967834 64.89242554 C-97.43509583 64.23508423 -97.09051331 63.57774292 -96.73548889 62.90048218 C-95.73036098 61.00976884 -94.69941201 59.13648272 -93.65467834 57.26742554 C-93.12229553 56.30449585 -92.58991272 55.34156616 -92.04139709 54.34945679 C-82.10263573 37.65332417 -63.75814447 17.46288765 -44.46717834 11.82992554 C-43.53905334 11.64430054 -42.61092834 11.45867554 -41.65467834 11.26742554 C-41.65467834 10.60742554 -41.65467834 9.94742554 -41.65467834 9.26742554 C-37.99329903 7.9192167 -34.32550354 6.58968637 -30.65467834 5.26742554 C-29.87995178 4.98254272 -29.10522522 4.69765991 -28.30702209 4.40414429 C-19.02788049 1.12023755 -9.80647999 -0.03285213 0 0 Z " fill="#89C249" transform="translate(141.65467834472656,85.73257446289063)"/>
<path d="M0 0 C0 0.99 0 1.98 0 3 C-0.61875 3.2475 -1.2375 3.495 -1.875 3.75 C-4.3829739 5.22527877 -4.92292949 6.34874952 -6 9 C-6.33 9.66 -6.66 10.32 -7 11 C-7.66 11 -8.32 11 -9 11 C-9.24878906 11.69480469 -9.49757812 12.38960937 -9.75390625 13.10546875 C-11.18155557 16.42173254 -12.98492847 19.27637853 -14.9375 22.3125 C-17.94571201 27.06717621 -20.31306243 31.62288651 -22 37 C-22.66 37 -23.32 37 -24 37 C-24.13277344 37.74765625 -24.26554687 38.4953125 -24.40234375 39.265625 C-24.57894531 40.25046875 -24.75554688 41.2353125 -24.9375 42.25 C-25.11152344 43.22453125 -25.28554688 44.1990625 -25.46484375 45.203125 C-25.90379729 47.49721795 -26.40348592 49.74291971 -27 52 C-27.66 52 -28.32 52 -29 52 C-29.04898438 52.83660156 -29.09796875 53.67320312 -29.1484375 54.53515625 C-29.80867131 64.81431367 -30.60110477 75.15226597 -32.96875 85.19921875 C-34.23806248 90.74796131 -34.88620648 96.35348586 -35.5625 102 C-35.80990429 104.06297118 -36.06099696 106.12550459 -36.31640625 108.1875 C-36.42412354 109.08855469 -36.53184082 109.98960937 -36.64282227 110.91796875 C-37 113 -37 113 -38 114 C-38.35883856 116.20127855 -38.66029713 118.4119589 -38.9375 120.625 C-39.02249756 121.28709473 -39.10749512 121.94918945 -39.19506836 122.63134766 C-39.46743275 124.75373907 -39.73435496 126.87675773 -40 129 C-40.34935351 131.79230566 -40.70417904 134.58383257 -41.0625 137.375 C-41.21847656 138.62023437 -41.37445313 139.86546875 -41.53515625 141.1484375 C-42 144 -42 144 -43 145 C-43.37131982 147.28581388 -43.68427455 149.58115529 -43.97265625 151.87890625 C-44.06002548 152.5655687 -44.14739471 153.25223114 -44.2374115 153.95970154 C-44.51645205 156.16014942 -44.78953569 158.36129091 -45.0625 160.5625 C-45.25026015 162.05148164 -45.43840615 163.54041467 -45.62695312 165.02929688 C-46.08911962 168.68564383 -46.54594538 172.34263582 -47 176 C-47.66 176 -48.32 176 -49 176 C-49.04898438 176.98097656 -49.09796875 177.96195313 -49.1484375 178.97265625 C-50.5826901 205.5826901 -50.5826901 205.5826901 -53 208 C-53.35883856 210.20127855 -53.66029713 212.4119589 -53.9375 214.625 C-54.02249756 215.28709473 -54.10749512 215.94918945 -54.19506836 216.63134766 C-54.46743275 218.75373907 -54.73435496 220.87675773 -55 223 C-55.34935351 225.79230566 -55.70417904 228.58383257 -56.0625 231.375 C-56.21847656 232.62023437 -56.37445313 233.86546875 -56.53515625 235.1484375 C-57 238 -57 238 -58 239 C-59.36368961 246.91950114 -59.33969866 254.98460815 -59.5625 263 C-59.60577365 264.45704157 -59.6493905 265.91407299 -59.69335938 267.37109375 C-59.79953302 270.91395412 -59.90105111 274.45692963 -60 278 C-59.34 278 -58.68 278 -58 278 C-57.649375 279.155 -57.29875 280.31 -56.9375 281.5 C-54.44395235 288.11434 -49.81577914 292.89555135 -44.0625 296.875 C-43.051875 297.57625 -42.04125 298.2775 -41 299 C-41 299.66 -41 300.32 -41 301 C-40.175 301.268125 -39.35 301.53625 -38.5 301.8125 C-35 303 -35 303 -31.6875 304.625 C-22.12134835 308.23765072 -9.25833214 306.90302237 0 303 C1.010625 302.5875 2.02125 302.175 3.0625 301.75 C10.35960182 297.40279041 16.56541938 291.73062326 22.52001953 285.72290039 C23.2123468 285.03247147 23.90467407 284.34204254 24.61798096 283.63069153 C26.87782284 281.37451786 29.13044351 279.11128822 31.3828125 276.84765625 C32.96707194 275.26220254 34.55170361 273.6771207 36.13668823 272.09239197 C39.44628688 268.78123522 42.75251833 265.46676586 46.05615234 262.1496582 C50.27511605 257.91369896 54.50063858 253.68435832 58.72848701 249.45726871 C61.99742518 246.18805768 65.26374336 242.91623953 68.52920151 239.64355278 C70.08582378 238.08376547 71.64303733 236.52456799 73.20087051 234.96599007 C75.38268895 232.78198531 77.56117345 230.5947079 79.73876953 228.40649414 C80.37271637 227.77300049 81.00666321 227.13950684 81.65982056 226.48681641 C85.43309665 222.68682714 89.01789148 218.76922351 92.51040459 214.709342 C94.25305865 212.70960988 96.09215385 210.84205835 98 209 C100.47963329 206.55336563 102.85440376 204.07892226 105.125 201.4375 C105.67251954 200.82618634 106.22003908 200.21487268 106.78415012 199.58503437 C108.53242815 197.54547436 110.13662991 195.49087301 111.74684811 193.34626293 C116.78567541 186.95837177 121.35613736 181.41842841 129.76992524 180.32587397 C134.10720434 180.07352108 138.40199957 180.14293586 142.74243164 180.26879883 C144.69382997 180.26971786 146.645241 180.26395281 148.59660339 180.2520752 C153.85876157 180.23820846 159.11602761 180.31551056 164.37722325 180.4088881 C169.90431511 180.48994111 175.43126444 180.48199102 180.95884705 180.48283386 C191.42338345 180.49705416 201.88589242 180.58402288 212.3497414 180.70049924 C231.07908672 180.90597816 249.80935382 180.97409583 268.53964323 181.0353319 C275.10302722 181.05949676 281.66545725 181.11105896 288.22844517 181.18666518 C292.3207116 181.23093696 296.41299508 181.25925183 300.50541878 181.28443146 C302.39157325 181.2997678 304.2776869 181.32212415 306.16366196 181.35232353 C320.25499297 181.57399336 331.58632474 179.77334709 344.25 173.125 C345.26537842 172.60184204 345.26537842 172.60184204 346.30126953 172.06811523 C367.68386662 160.88420106 383.02499547 143.30013881 392 121 C392.53625 119.865625 393.0725 118.73125 393.625 117.5625 C396.30991934 110.60611807 397.18016941 103.43128438 397.75390625 96.03125 C398 94 398 94 399 92 C399.81944382 82.11539075 398.09155947 72.41206668 396.5625 62.6875 C396.32925529 61.16353717 396.0968288 59.63944887 395.86523438 58.11523438 C395.43938718 55.31779033 395.00850509 52.52122079 394.57250977 49.7253418 C394.02352768 46.15309546 393.5044663 42.57872965 393 39 C392.34 39 391.68 39 391 39 C390.01 35.37 389.02 31.74 388 28 C387.34 28 386.68 28 386 28 C385.505 26.906875 385.01 25.81375 384.5 24.6875 C380.08430683 15.87171683 373.63133045 8.23229478 367 1 C370.83380497 1 371.33266892 1.9000721 374 4.5625 C382.82953958 13.79273181 389.75778605 23.77934905 395.375 35.25 C395.76743896 36.03342773 396.15987793 36.81685547 396.56420898 37.62402344 C403.93804166 53.40468472 406.26426795 71.14348807 408.9375 88.1875 C409.31176221 90.52601016 409.68687737 92.86438393 410.06274414 95.20263672 C411.02255789 101.18952546 411.97284561 107.17786283 412.91922092 113.16688538 C413.81538465 118.83685832 414.71539384 124.50621283 415.6171875 130.17529297 C415.75699319 131.05418371 415.89679888 131.93307446 416.0408411 132.83859825 C416.47509193 135.56818838 416.90940994 138.29776782 417.34375 141.02734375 C417.93749821 144.7587764 418.53117694 148.4902201 419.12475586 152.22167969 C419.27379081 153.15853922 419.42282576 154.09539875 419.57637691 155.06064796 C420.48416704 160.76899703 421.38978686 166.47768587 422.29376507 172.18663979 C425.18298579 190.43157741 428.08924733 208.67268369 431.12109375 226.89453125 C431.36162241 228.34319489 431.60211675 229.79186423 431.84257507 231.24053955 C432.93667309 237.82636847 434.03956139 244.41058853 435.15600586 250.99267578 C435.53912642 253.2854439 435.92203434 255.57824757 436.3046875 257.87109375 C436.4789476 258.87936722 436.6532077 259.88764069 436.83274841 260.9264679 C438.26799821 269.59877332 438.57240576 277.40855421 436.3125 285.9375 C436.13098389 286.6298877 435.94946777 287.32227539 435.76245117 288.03564453 C432.16316482 301.13979789 424.98700006 311.5646228 413.2421875 318.7578125 C399.20600933 326.53395302 385.54076924 327.27117653 369.9453125 324.33984375 C354.79630582 319.73402933 345.08051298 308.85372589 334.30078125 297.8515625 C332.531929 296.06895654 330.76165614 294.28775922 328.99003601 292.50790405 C324.83101748 288.32337828 320.68524768 284.12610328 316.54622859 279.92180097 C310.45456411 273.73545054 304.33975699 267.5720581 298.2253828 261.40816307 C293.84117813 256.98819841 289.46052871 252.5649068 285.09040833 248.13101196 C283.89062851 246.91630722 283.89062851 246.91630722 282.66661072 245.67706299 C281.16948736 244.1612344 279.67428799 242.64350231 278.18133545 241.12356567 C277.52424088 240.4591748 276.8671463 239.79478394 276.19013977 239.11026001 C275.61892049 238.53032602 275.04770121 237.95039204 274.45917225 237.35288429 C271.48163848 234.59223786 268.63030645 234.68847232 264.68537903 234.34814453 C263.70074267 234.26308367 263.70074267 234.26308367 262.69621468 234.1763044 C260.48261749 233.98856212 258.26846542 233.80944864 256.05395508 233.6328125 C254.89036376 233.53946367 254.89036376 233.53946367 253.70326555 233.44422901 C232.09995976 231.73465239 210.47058092 230.69566041 188.8125 230 C187.81254108 229.96690656 186.81258216 229.93381312 185.78232145 229.89971685 C119.15364046 227.08044447 119.15364046 227.08044447 62.4506073 257.54159546 C48.33088085 271.23331932 35.95580515 287.12547586 25.26299572 303.60635471 C18.75342193 313.63466197 12.52629717 319.80534885 0.6875 323.375 C-0.25738281 323.67148437 -1.20226562 323.96796875 -2.17578125 324.2734375 C-16.24799344 327.89367466 -31.76851341 326.49341461 -44.5 319.1875 C-46.02472694 318.16079945 -47.52659368 317.09908147 -49 316 C-49.70511719 315.48695313 -50.41023438 314.97390625 -51.13671875 314.4453125 C-60.27500678 307.1694946 -66.20361292 296.50745542 -68 285 C-69.4353062 267.77540852 -66.71742696 250.99103038 -63.875 234.0625 C-63.4271927 231.32477495 -62.98522259 228.58611775 -62.54345703 225.84741211 C-61.70144044 220.63836376 -60.8528776 215.43045147 -59.99712944 210.2236414 C-58.12245159 198.81199933 -56.30574488 187.39147871 -54.5 175.96875 C-53.89792436 172.16144939 -53.29579301 168.3541576 -52.69360352 164.546875 C-52.54381074 163.59967087 -52.39401796 162.65246674 -52.23968601 161.67655945 C-50.45290017 150.38436779 -48.6471516 139.09520881 -46.84144402 127.80603027 C-45.2387702 117.78510243 -43.64426635 107.7630596 -42.07507324 97.73683167 C-41.36142387 93.18495281 -40.63954474 88.6344088 -39.91534424 84.084198 C-39.60453709 82.11877651 -39.29748884 80.15275565 -38.99481201 78.18606567 C-36.75827976 63.66635374 -34.20000749 48.69145527 -27.125 35.625 C-26.78041748 34.96765869 -26.43583496 34.31031738 -26.08081055 33.63305664 C-25.07568264 31.7423433 -24.04473366 29.86905718 -23 28 C-22.46761719 27.03707031 -21.93523438 26.07414062 -21.38671875 25.08203125 C-16.1184343 16.23183628 -8.66426912 5.77617941 0 0 Z " fill="#6EA33F" transform="translate(71,115)"/>
<path d="M0 0 C0 0.99 0 1.98 0 3 C-0.61875 3.2475 -1.2375 3.495 -1.875 3.75 C-4.3829739 5.22527877 -4.92292949 6.34874952 -6 9 C-6.33 9.66 -6.66 10.32 -7 11 C-7.66 11 -8.32 11 -9 11 C-9.24878906 11.69480469 -9.49757812 12.38960937 -9.75390625 13.10546875 C-11.18155557 16.42173254 -12.98492847 19.27637853 -14.9375 22.3125 C-17.94571201 27.06717621 -20.31306243 31.62288651 -22 37 C-22.66 37 -23.32 37 -24 37 C-24.13277344 37.74765625 -24.26554687 38.4953125 -24.40234375 39.265625 C-24.57894531 40.25046875 -24.75554688 41.2353125 -24.9375 42.25 C-25.11152344 43.22453125 -25.28554688 44.1990625 -25.46484375 45.203125 C-25.90379729 47.49721795 -26.40348592 49.74291971 -27 52 C-27.66 52 -28.32 52 -29 52 C-29.04898438 52.83660156 -29.09796875 53.67320312 -29.1484375 54.53515625 C-29.80867131 64.81431367 -30.60110477 75.15226597 -32.96875 85.19921875 C-34.23806248 90.74796131 -34.88620648 96.35348586 -35.5625 102 C-35.80990429 104.06297118 -36.06099696 106.12550459 -36.31640625 108.1875 C-36.42412354 109.08855469 -36.53184082 109.98960937 -36.64282227 110.91796875 C-37 113 -37 113 -38 114 C-38.35883856 116.20127855 -38.66029713 118.4119589 -38.9375 120.625 C-39.02249756 121.28709473 -39.10749512 121.94918945 -39.19506836 122.63134766 C-39.46743275 124.75373907 -39.73435496 126.87675773 -40 129 C-40.34935351 131.79230566 -40.70417904 134.58383257 -41.0625 137.375 C-41.21847656 138.62023437 -41.37445313 139.86546875 -41.53515625 141.1484375 C-42 144 -42 144 -43 145 C-43.37131982 147.28581388 -43.68427455 149.58115529 -43.97265625 151.87890625 C-44.06002548 152.5655687 -44.14739471 153.25223114 -44.2374115 153.95970154 C-44.51645205 156.16014942 -44.78953569 158.36129091 -45.0625 160.5625 C-45.25026015 162.05148164 -45.43840615 163.54041467 -45.62695312 165.02929688 C-46.08911962 168.68564383 -46.54594538 172.34263582 -47 176 C-47.66 176 -48.32 176 -49 176 C-49.04898438 176.98097656 -49.09796875 177.96195313 -49.1484375 178.97265625 C-50.5826901 205.5826901 -50.5826901 205.5826901 -53 208 C-53.35883856 210.20127855 -53.66029713 212.4119589 -53.9375 214.625 C-54.02249756 215.28709473 -54.10749512 215.94918945 -54.19506836 216.63134766 C-54.46743275 218.75373907 -54.73435496 220.87675773 -55 223 C-55.34935351 225.79230566 -55.70417904 228.58383257 -56.0625 231.375 C-56.21847656 232.62023437 -56.37445313 233.86546875 -56.53515625 235.1484375 C-57 238 -57 238 -58 239 C-59.36368961 246.91950114 -59.33969866 254.98460815 -59.5625 263 C-59.60577365 264.45704157 -59.6493905 265.91407299 -59.69335938 267.37109375 C-59.79953302 270.91395412 -59.90105111 274.45692963 -60 278 C-59.34 278 -58.68 278 -58 278 C-57.62875 279.134375 -57.2575 280.26875 -56.875 281.4375 C-53.03313725 291.55142705 -46.26185052 299.81711239 -36.3125 304.3125 C-34.87960851 304.88663803 -33.44259691 305.45070349 -32 306 C-31.113125 306.391875 -30.22625 306.78375 -29.3125 307.1875 C-21.4450512 309.95173877 -13.78783437 309.63994385 -6 307 C-4.72962891 306.61521484 -4.72962891 306.61521484 -3.43359375 306.22265625 C-2.04333984 305.77212891 -2.04333984 305.77212891 -0.625 305.3125 C0.22835937 305.04050781 1.08171875 304.76851563 1.9609375 304.48828125 C9.75513423 300.67132887 16.02056076 294.27194325 22.07421875 288.16870117 C22.82495163 287.41986664 23.57568451 286.6710321 24.34916687 285.89950562 C26.80017436 283.45216793 29.2439675 280.99776797 31.6875 278.54296875 C33.39823489 276.83104044 35.10934105 275.11948308 36.82080078 273.40827942 C40.39096792 269.83655431 43.95776802 266.26151278 47.52197266 262.68383789 C52.09796746 258.09077039 56.68060164 253.50439733 61.26551819 248.92023754 C64.79156441 245.39392007 68.3150039 241.86500799 71.83755493 238.33519936 C73.52751525 236.64205183 75.21808636 234.94951373 76.90927124 233.25758934 C79.26235907 230.90234327 81.6121309 228.54384076 83.9609375 226.18432617 C84.66320969 225.48250717 85.36548187 224.78068817 86.08903503 224.05760193 C86.72529312 223.41707886 87.36155121 222.77655579 88.01708984 222.11662292 C88.57230316 221.55973376 89.12751648 221.0028446 89.69955444 220.42908001 C91.1068074 219.0124003 91.1068074 219.0124003 92 217 C120.96675056 214.55745909 149.94479392 212.92105476 179 212 C180.06011811 211.96552073 181.12023622 211.93104145 182.21247911 211.89551735 C277.73846634 208.87740043 277.73846634 208.87740043 311.79910278 239.95446777 C317.29088391 245.25573897 322.30867811 250.884533 327.1875 256.75 C327.97644653 257.69848816 328.76539307 258.64697632 329.57824707 259.62420654 C337.87733625 269.74820042 345.59303442 280.20199485 352.3462677 291.42533875 C355.18671015 296.08542775 357.99523827 299.49761913 363 302 C363 302.66 363 303.32 363 304 C364.051875 304.28875 365.10375 304.5775 366.1875 304.875 C370 306 370 306 372.5 307.0625 C383.31129313 311.11673492 392.55506343 308.47280886 403 305 C405.32722515 304.3079167 407.66137621 303.6526392 410 303 C410 302.34 410 301.68 410 301 C412.375 298.375 412.375 298.375 415 296 C415.66 296 416.32 296 417 296 C417 295.34 417 294.68 417 294 C417.66 294 418.32 294 419 294 C419.268125 293.360625 419.53625 292.72125 419.8125 292.0625 C421 290 421 290 424 289 C424.70089243 287.16282859 424.70089243 287.16282859 425 284.9375 C425.59301832 281.72112947 426.24230359 279.46879597 427.625 276.4375 C431.363351 266.84367066 429.11744247 255.08525825 426.80078125 245.4453125 C424.69431579 236.3823733 423.6143101 227.29941202 424 218 C423.34 218 422.68 218 422 218 C421.49130173 214.3344862 420.99463592 210.66743573 420.5 207 C420.35691406 205.97003906 420.21382813 204.94007813 420.06640625 203.87890625 C419.30596126 198.19367468 418.83455766 192.73533461 419 187 C418.34 187 417.68 187 417 187 C416.88406494 186.06615479 416.76812988 185.13230957 416.64868164 184.17016602 C416.21785313 180.7164328 415.7832135 177.2632244 415.34594727 173.81030273 C415.15723258 172.31375136 414.97005381 170.81700549 414.78442383 169.32006836 C414.51784235 167.17248795 414.2458039 165.0256601 413.97265625 162.87890625 C413.72914429 160.93866577 413.72914429 160.93866577 413.48071289 158.95922852 C413.31552661 156.12066736 413.31552661 156.12066736 412 155 C411.65288843 152.86901056 411.36323847 150.72861539 411.09765625 148.5859375 C410.92777405 147.25390119 410.75785081 145.92187011 410.58789062 144.58984375 C410.32526087 142.49027152 410.06441413 140.39049082 409.80493164 138.29052734 C409.55292095 136.26339081 409.29427045 134.23717649 409.03515625 132.2109375 C408.8844165 130.99712402 408.73367676 129.78331055 408.57836914 128.53271484 C408.06874243 124.98093143 408.06874243 124.98093143 407 121.54101562 C405.92998113 117.75206209 405.38784177 114.0326339 404.96484375 110.1328125 C404.88126114 109.41261932 404.79767853 108.69242615 404.71156311 107.95040894 C404.4480133 105.67586521 404.19202987 103.40056942 403.9375 101.125 C403.67884485 98.82808464 403.41845917 96.53142872 403.15272522 94.23532104 C402.98816643 92.81240753 402.82775209 91.38900746 402.67185974 89.96511841 C402.53261174 86.69726296 402.53261174 86.69726296 401 84 C400.6541332 82.07657434 400.36395053 80.14307812 400.09765625 78.20703125 C399.84532227 76.42522461 399.84532227 76.42522461 399.58789062 74.60742188 C399.2403568 72.09716824 398.8939839 69.58675359 398.54882812 67.07617188 C398.37931641 65.88185547 398.20980469 64.68753906 398.03515625 63.45703125 C397.8844165 62.36366455 397.73367676 61.27029785 397.57836914 60.14379883 C396.99169847 56.95487599 396.06567267 54.05770392 395 51 C394.5827591 48.88288875 394.20667429 46.75719187 393.875 44.625 C393.70742188 43.56539062 393.53984375 42.50578125 393.3671875 41.4140625 C393.24601562 40.61742187 393.12484375 39.82078125 393 39 C392.34 39 391.68 39 391 39 C390.01 35.37 389.02 31.74 388 28 C387.34 28 386.68 28 386 28 C385.505 26.906875 385.01 25.81375 384.5 24.6875 C380.08430683 15.87171683 373.63133045 8.23229478 367 1 C370.83380497 1 371.33266892 1.9000721 374 4.5625 C382.82953958 13.79273181 389.75778605 23.77934905 395.375 35.25 C395.76743896 36.03342773 396.15987793 36.81685547 396.56420898 37.62402344 C403.93804166 53.40468472 406.26426795 71.14348807 408.9375 88.1875 C409.31176221 90.52601016 409.68687737 92.86438393 410.06274414 95.20263672 C411.02255789 101.18952546 411.97284561 107.17786283 412.91922092 113.16688538 C413.81538465 118.83685832 414.71539384 124.50621283 415.6171875 130.17529297 C415.75699319 131.05418371 415.89679888 131.93307446 416.0408411 132.83859825 C416.47509193 135.56818838 416.90940994 138.29776782 417.34375 141.02734375 C417.93749821 144.7587764 418.53117694 148.4902201 419.12475586 152.22167969 C419.27379081 153.15853922 419.42282576 154.09539875 419.57637691 155.06064796 C420.48416704 160.76899703 421.38978686 166.47768587 422.29376507 172.18663979 C425.18298579 190.43157741 428.08924733 208.67268369 431.12109375 226.89453125 C431.36162241 228.34319489 431.60211675 229.79186423 431.84257507 231.24053955 C432.93667309 237.82636847 434.03956139 244.41058853 435.15600586 250.99267578 C435.53912642 253.2854439 435.92203434 255.57824757 436.3046875 257.87109375 C436.4789476 258.87936722 436.6532077 259.88764069 436.83274841 260.9264679 C438.26799821 269.59877332 438.57240576 277.40855421 436.3125 285.9375 C436.13098389 286.6298877 435.94946777 287.32227539 435.76245117 288.03564453 C432.16316482 301.13979789 424.98700006 311.5646228 413.2421875 318.7578125 C399.20600933 326.53395302 385.54076924 327.27117653 369.9453125 324.33984375 C354.79630582 319.73402933 345.08051298 308.85372589 334.30078125 297.8515625 C332.531929 296.06895654 330.76165614 294.28775922 328.99003601 292.50790405 C324.83101748 288.32337828 320.68524768 284.12610328 316.54622859 279.92180097 C310.45456411 273.73545054 304.33975699 267.5720581 298.2253828 261.40816307 C293.84117813 256.98819841 289.46052871 252.5649068 285.09040833 248.13101196 C283.89062851 246.91630722 283.89062851 246.91630722 282.66661072 245.67706299 C281.16948736 244.1612344 279.67428799 242.64350231 278.18133545 241.12356567 C277.52424088 240.4591748 276.8671463 239.79478394 276.19013977 239.11026001 C275.61892049 238.53032602 275.04770121 237.95039204 274.45917225 237.35288429 C271.48163848 234.59223786 268.63030645 234.68847232 264.68537903 234.34814453 C263.70074267 234.26308367 263.70074267 234.26308367 262.69621468 234.1763044 C260.48261749 233.98856212 258.26846542 233.80944864 256.05395508 233.6328125 C254.89036376 233.53946367 254.89036376 233.53946367 253.70326555 233.44422901 C232.09995976 231.73465239 210.47058092 230.69566041 188.8125 230 C187.81254108 229.96690656 186.81258216 229.93381312 185.78232145 229.89971685 C119.15364046 227.08044447 119.15364046 227.08044447 62.4506073 257.54159546 C48.33088085 271.23331932 35.95580515 287.12547586 25.26299572 303.60635471 C18.75342193 313.63466197 12.52629717 319.80534885 0.6875 323.375 C-0.25738281 323.67148437 -1.20226562 323.96796875 -2.17578125 324.2734375 C-16.24799344 327.89367466 -31.76851341 326.49341461 -44.5 319.1875 C-46.02472694 318.16079945 -47.52659368 317.09908147 -49 316 C-49.70511719 315.48695313 -50.41023438 314.97390625 -51.13671875 314.4453125 C-60.27500678 307.1694946 -66.20361292 296.50745542 -68 285 C-69.4353062 267.77540852 -66.71742696 250.99103038 -63.875 234.0625 C-63.4271927 231.32477495 -62.98522259 228.58611775 -62.54345703 225.84741211 C-61.70144044 220.63836376 -60.8528776 215.43045147 -59.99712944 210.2236414 C-58.12245159 198.81199933 -56.30574488 187.39147871 -54.5 175.96875 C-53.89792436 172.16144939 -53.29579301 168.3541576 -52.69360352 164.546875 C-52.54381074 163.59967087 -52.39401796 162.65246674 -52.23968601 161.67655945 C-50.45290017 150.38436779 -48.6471516 139.09520881 -46.84144402 127.80603027 C-45.2387702 117.78510243 -43.64426635 107.7630596 -42.07507324 97.73683167 C-41.36142387 93.18495281 -40.63954474 88.6344088 -39.91534424 84.084198 C-39.60453709 82.11877651 -39.29748884 80.15275565 -38.99481201 78.18606567 C-36.75827976 63.66635374 -34.20000749 48.69145527 -27.125 35.625 C-26.78041748 34.96765869 -26.43583496 34.31031738 -26.08081055 33.63305664 C-25.07568264 31.7423433 -24.04473366 29.86905718 -23 28 C-22.46761719 27.03707031 -21.93523438 26.07414062 -21.38671875 25.08203125 C-16.1184343 16.23183628 -8.66426912 5.77617941 0 0 Z " fill="#010100" transform="translate(71,115)"/>
<path d="M0 0 C9.9 0 19.8 0 30 0 C30 13.53 30 27.06 30 41 C43.53 41 57.06 41 71 41 C71 50.9 71 60.8 71 71 C57.47 71 43.94 71 30 71 C30 84.53 30 98.06 30 112 C20.1 112 10.2 112 0 112 C0 98.47 0 84.94 0 71 C-13.2 71 -26.4 71 -40 71 C-40 61.1 -40 51.2 -40 41 C-26.8 41 -13.6 41 0 41 C0 27.47 0 13.94 0 0 Z " fill="#F3F3F3" transform="translate(133,137)"/>
<path d="M0 0 C5.53607429 2.85163558 9.57578614 7.00915089 12.25 12.625 C13.46581618 18.0961728 13.4258742 23.20566936 10.8359375 28.28125 C7.22536463 33.45576085 3.22459968 37.19930872 -3.1640625 38.41015625 C-9.26757746 38.81915468 -13.35207836 36.84691927 -18 33 C-22.19911527 28.57987867 -24.07867619 24.63175288 -24.3125 18.5625 C-24.14741572 13.30586897 -22.90386588 9.91576504 -19.125 6.11328125 C-13.12147909 0.67259042 -8.17837435 -1.294506 0 0 Z " fill="#F2F2F2" transform="translate(369,212)"/>
<path d="M0 0 C5.52102998 3.41406448 7.15153272 8.07959815 9.125 14 C9.99192396 20.06846769 8.12541418 23.79951252 4.8828125 28.75390625 C1.60569151 32.94133862 -1.24067641 34.59380939 -6.484375 35.40234375 C-13.23486564 35.78462292 -17.74083597 34.40071202 -22.875 30 C-27.15342639 25.43634518 -28.33873027 20.47754998 -28.1953125 14.3515625 C-27.6697551 10.49320207 -26.26753213 7.07927747 -23.875 4 C-21.734375 2.77734375 -21.734375 2.77734375 -19.875 2 C-19.875 1.34 -19.875 0.68 -19.875 0 C-13.51196042 -3.39362111 -6.38040878 -3.12703203 0 0 Z " fill="#F2F2F2" transform="translate(372.875,138)"/>
<path d="M0 0 C4.29817678 2.93057508 8.07586815 5.85260444 9.75 10.875 C10.43190596 17.99604652 10.76287833 24.39679459 6.28125 30.28515625 C1.80454515 34.93316358 -1.87777776 36.13444934 -8.1875 36.5 C-14.38912584 36.29017055 -18.03537456 34.35436322 -22.25 29.875 C-26.04966964 24.72706049 -26.67993498 20.21654093 -26.25 13.875 C-24.2259579 8.00527791 -21.78025766 3.62208267 -16.625 0.0625 C-10.96373899 -1.92942517 -5.67618533 -1.96483338 0 0 Z " fill="#F2F3F2" transform="translate(408.25,175.125)"/>
<path d="M0 0 C4.54197646 2.65662774 7.94617534 6.20485068 10.3125 10.9375 C10.96292476 18.56133125 11.34303054 24.90086336 6.3125 30.9375 C2.0856067 34.91037327 -1.91311156 36.30420064 -7.6875 36.625 C-13.86482707 36.34421241 -17.52592215 34.44921061 -21.6875 29.9375 C-25.48689523 25.50127431 -26.34823083 21.20974602 -26.05859375 15.42578125 C-25.11967235 9.13006615 -22.58700507 5.24386044 -17.5 1.4375 C-11.42495145 -2.22348985 -6.64682751 -1.91518759 0 0 Z " fill="#F2F3F2" transform="translate(333.6875,175.0625)"/>
<path d="M0 0 C1.0622611 0.02184631 1.0622611 0.02184631 2.14598203 0.04413396 C2.90485691 0.03986184 3.6637318 0.03558971 4.44560289 0.03118813 C6.99039166 0.02294716 9.53353491 0.05045939 12.07817197 0.07777959 C13.9013985 0.07918983 15.72462788 0.07839855 17.54785275 0.07556707 C22.50018534 0.07413057 27.45191427 0.10355827 32.40410638 0.13843685 C37.5784099 0.16966135 42.75272676 0.17262801 47.92710996 0.17856389 C57.72670859 0.19411382 67.52602882 0.23515791 77.32550478 0.28531134 C88.48133145 0.341169 99.63717131 0.36868232 110.79310298 0.39378852 C133.7427726 0.44607268 156.69219498 0.53403739 179.64164853 0.64540654 C179.64164853 0.97540654 179.64164853 1.30540654 179.64164853 1.64540654 C118.92164853 1.64540654 58.20164853 1.64540654 -4.35835147 1.64540654 C-5.01835147 2.96540654 -5.67835147 4.28540654 -6.35835147 5.64540654 C-7.81587291 7.35740358 -7.81587291 7.35740358 -9.544173 9.09192449 C-10.20007922 9.75491552 -10.85598544 10.41790654 -11.53176761 11.10098821 C-12.25071704 11.81746022 -12.96966647 12.53393224 -13.71040225 13.27211553 C-14.84736293 14.4167426 -14.84736293 14.4167426 -16.00729251 15.58449346 C-18.51758574 18.10869957 -21.03525482 20.62539314 -23.55366397 23.14150029 C-25.30306095 24.8947843 -27.05223386 26.64829189 -28.80119205 28.4020136 C-32.47145992 32.07974811 -36.1455862 35.75357617 -39.82221866 39.42494756 C-44.52478663 44.12173156 -49.21591486 48.8297525 -53.9039619 53.54103547 C-57.51562482 57.16746102 -61.13422405 60.786903 -64.75483203 64.40439588 C-66.48665705 66.1367332 -68.21612928 67.87142603 -69.94316363 69.6085394 C-72.36495508 72.04272124 -74.79616897 74.46709998 -77.2299335 76.88930303 C-77.93673755 77.60375081 -78.64354159 78.3181986 -79.37176394 79.05429631 C-88.83405566 88.41794209 -99.8658848 94.19338432 -113.29585147 94.83290654 C-117.26496659 94.76550648 -120.58005003 93.92618669 -124.35835147 92.64540654 C-125.20526553 92.38888311 -126.05217959 92.13235967 -126.92475772 91.86806279 C-136.46985775 88.77486626 -143.32932504 83.6192802 -149.35835147 75.64540654 C-148.86335147 74.65540654 -148.86335147 74.65540654 -148.35835147 73.64540654 C-147.79567569 74.35116826 -147.79567569 74.35116826 -147.22163272 75.07118779 C-144.18691904 78.76329537 -141.57431609 81.28942631 -137.35835147 83.64540654 C-137.35835147 84.30540654 -137.35835147 84.96540654 -137.35835147 85.64540654 C-136.12085147 86.04759404 -136.12085147 86.04759404 -134.85835147 86.45790654 C-131.35835147 87.64540654 -131.35835147 87.64540654 -128.04585147 89.27040654 C-118.47969982 92.88305726 -105.61668361 91.54842892 -96.35835147 87.64540654 C-95.34772647 87.23290654 -94.33710147 86.82040654 -93.29585147 86.39540654 C-85.97850905 82.03613872 -79.76179126 76.34464026 -73.79072452 70.32069951 C-72.74500529 69.27782781 -72.74500529 69.27782781 -71.67816043 68.21388799 C-69.40389974 65.94329435 -67.13685616 63.66564791 -64.87007022 61.38759404 C-63.27862372 59.79495361 -61.68680537 58.20268468 -60.09463382 56.61076909 C-56.7724465 53.28702409 -53.45362609 49.95996658 -50.1374042 46.63026983 C-45.89126165 42.36709006 -41.63851782 38.11057095 -37.3834703 33.8562811 C-34.10178586 30.57432461 -30.82271499 27.28976746 -27.54451823 24.0043276 C-25.97704855 22.43368207 -24.40897806 20.86363589 -22.84029078 19.29420644 C-20.65066979 17.10241313 -18.464375 14.90735611 -16.27900577 12.71132451 C-15.6342731 12.06704503 -14.98954043 11.42276555 -14.32527041 10.75896245 C-13.42780345 9.85509801 -13.42780345 9.85509801 -12.51220584 8.93297368 C-11.73884151 8.15709559 -11.73884151 8.15709559 -10.94985366 7.36554319 C-9.21090055 5.58435176 -9.21090055 5.58435176 -7.63025641 2.97751313 C-5.05086893 0.32977624 -3.636245 0.05548762 0 0 Z " fill="#446526" transform="translate(167.35835146903992,330.3545934557915)"/>
<path d="M0 0 C0.680625 0.721875 1.36125 1.44375 2.0625 2.1875 C4.16006249 4.30917241 6.34995143 6.00575951 8.8125 7.6875 C9.864375 8.450625 10.91625 9.21375 12 10 C12 10.66 12 11.32 12 12 C12.825 12.268125 13.65 12.53625 14.5 12.8125 C18 14 18 14 21.3125 15.625 C31.1360323 19.33485035 43.44961716 17.63555008 53 14 C54.32875941 13.64887705 55.66103053 13.30991878 57 13 C56 16 56 16 53.92578125 17.1328125 C43.97327803 20.91149085 35.27727479 22.48382196 25 19 C24.15308594 18.74347656 23.30617188 18.48695313 22.43359375 18.22265625 C13.023281 15.17313904 5.7981321 10.04257033 0 2 C0 1.34 0 0.68 0 0 Z " fill="#3B5721" transform="translate(18,404)"/>
<path d="M0 0 C1.22931054 3.635326 0.84201531 6.58559313 0.328125 10.35546875 C0.15796875 11.61939453 -0.0121875 12.88332031 -0.1875 14.18554688 C-0.2803125 14.84546631 -0.373125 15.50538574 -0.46875 16.18530273 C-0.74259274 18.13476825 -1.0042797 20.08592915 -1.265625 22.03710938 C-2.28981642 29.51897831 -3.48474408 36.95301134 -4.82301331 44.38479614 C-6.38853709 53.09256364 -7.78217111 61.82772102 -9.1875 70.5625 C-9.46277749 72.26759639 -9.73816762 73.97267461 -10.01367188 75.67773438 C-10.67707268 79.78494899 -11.33897412 83.89240252 -12 88 C-12.33 88 -12.66 88 -13 88 C-13.28436965 79.89546495 -12.39445571 71.97995095 -11 64 C-10.505 63.505 -10.505 63.505 -10 63 C-9.64116144 60.79872145 -9.33970287 58.5880411 -9.0625 56.375 C-8.97750244 55.71290527 -8.89250488 55.05081055 -8.80493164 54.36865234 C-8.53256725 52.24626093 -8.26564504 50.12324227 -8 48 C-7.65064649 45.20769434 -7.29582096 42.41616743 -6.9375 39.625 C-6.78152344 38.37976563 -6.62554688 37.13453125 -6.46484375 35.8515625 C-6 33 -6 33 -5 32 C-4.64108262 29.81049088 -4.3396555 27.61150963 -4.0625 25.41015625 C-3.97750244 24.7504332 -3.89250488 24.09071014 -3.80493164 23.41099548 C-3.53257708 21.29532384 -3.26573328 19.17901282 -3 17.0625 C-2.73405594 14.94958885 -2.46683962 12.83688615 -2.19506836 10.72471619 C-1.94813107 8.80529081 -1.70637062 6.88520157 -1.46484375 4.96508789 C-1 2 -1 2 0 0 Z " fill="#54792E" transform="translate(38,196)"/>
<path d="M0 0 C0.99 0.495 0.99 0.495 2 1 C2.57836914 3.57617188 2.57836914 3.57617188 3.03515625 6.96875 C3.20466797 8.17917969 3.37417969 9.38960937 3.54882812 10.63671875 C3.71833984 11.91160156 3.88785156 13.18648437 4.0625 14.5 C4.40397306 17.010906 4.74883684 19.52135403 5.09765625 22.03125 C5.24726807 23.15080078 5.39687988 24.27035156 5.55102539 25.42382812 C5.73228711 27.92402121 5.73228711 27.92402121 7 29 C7.29837249 30.71643786 7.53887782 32.44301762 7.75390625 34.171875 C7.88603516 35.22890625 8.01816406 36.2859375 8.15429688 37.375 C8.28900391 38.48875 8.42371094 39.6025 8.5625 40.75 C8.77036133 42.39742187 8.77036133 42.39742187 8.98242188 44.078125 C9.55805546 48.75124889 10.08538172 53.28521093 10 58 C8.47456809 55.21347094 7.64085231 52.8054238 7.1484375 49.671875 C7.01953125 48.87265625 6.890625 48.0734375 6.7578125 47.25 C6.63148438 46.425 6.50515625 45.6 6.375 44.75 C6.17390625 43.48929688 6.17390625 43.48929688 5.96875 42.203125 C5.63994409 40.13634499 5.31918031 38.06828839 5 36 C4.67 36 4.34 36 4 36 C3.51953589 31.87515006 3.04086844 27.75009346 2.5625 23.625 C2.42779297 22.46871094 2.29308594 21.31242187 2.15429688 20.12109375 C1.37808235 13.41914394 0.64396077 6.7160022 0 0 Z " fill="#537A2E" transform="translate(467,171)"/>
<path d="M0 0 C5.44313305 0.85944206 5.44313305 0.85944206 8.02734375 1.51171875 C13.61688842 2.85894234 18.96461964 3.18688151 24.6875 3.1875 C25.75641479 3.18858765 25.75641479 3.18858765 26.84692383 3.18969727 C31.31880539 3.14347761 35.58675588 2.72300854 40 2 C30.94257524 8.03828317 20.97976607 7.68962025 10.69921875 5.7109375 C6.76146382 4.67378642 3.53716847 3.00217083 0 1 C0 0.67 0 0.34 0 0 Z " fill="#416125" transform="translate(434,418)"/>
<path d="M0 0 C0.66 0.33 1.32 0.66 2 1 C1.38125 1.2475 0.7625 1.495 0.125 1.75 C-2.35068687 3.20628639 -2.95125002 4.37812506 -4 7 C-4.66 7 -5.32 7 -6 7 C-6.35964844 7.84691406 -6.35964844 7.84691406 -6.7265625 8.7109375 C-8.26641322 11.47889003 -10.12933621 13.39425756 -12.375 15.625 C-13.53128906 16.78902344 -13.53128906 16.78902344 -14.7109375 17.9765625 C-16.7670065 19.79404329 -18.49265929 20.93523887 -21 22 C-19.43586569 18.16076124 -16.90063768 15.90063768 -14 13 C-13.56945312 12.21109375 -13.13890625 11.4221875 -12.6953125 10.609375 C-10.64340627 7.45114145 -8.39678498 5.82835663 -5.3125 3.6875 C-3.82169922 2.64142578 -3.82169922 2.64142578 -2.30078125 1.57421875 C-1.54152344 1.05472656 -0.78226563 0.53523438 0 0 Z " fill="#648F36" transform="translate(85,104)"/>
<path d="M0 0 C0.33 0 0.66 0 1 0 C1 2.64 1 5.28 1 8 C0.34 8 -0.32 8 -1 8 C-1.04898438 8.92941406 -1.09796875 9.85882813 -1.1484375 10.81640625 C-1.89103691 23.09490334 -1.89103691 23.09490334 -4 29 C-5.02451301 25.76607394 -4.95041862 23.35474612 -4.44140625 20.015625 C-4.30283203 19.08105469 -4.16425781 18.14648438 -4.02148438 17.18359375 C-3.87001953 16.21550781 -3.71855469 15.24742187 -3.5625 14.25 C-3.34110352 12.77466797 -3.34110352 12.77466797 -3.11523438 11.26953125 C-2.75041022 8.84521588 -2.37843254 6.42222202 -2 4 C-1.34 4 -0.68 4 0 4 C0 2.68 0 1.36 0 0 Z " fill="#5A8332" transform="translate(44,163)"/>
<path d="M0 0 C0.66 0.33 1.32 0.66 2 1 C0.70552412 3.58895176 -0.20860785 3.67564306 -2.90234375 4.61328125 C-8.17389377 6.27297869 -13.07882068 6.34440645 -18.5625 6.1875 C-19.47580078 6.17396484 -20.38910156 6.16042969 -21.33007812 6.14648438 C-23.55403259 6.11155315 -25.77667952 6.06251586 -28 6 C-28 5.67 -28 5.34 -28 5 C-26.96101563 4.96261719 -25.92203125 4.92523438 -24.8515625 4.88671875 C-16.16320983 4.50307179 -7.92673061 3.96336531 0 0 Z " fill="#557C2F" transform="translate(73,417)"/>
<path d="M0 0 C3.66786393 1.50349377 5.68910393 3.63728792 8.25 6.625 C8.95640625 7.44226563 9.6628125 8.25953125 10.390625 9.1015625 C10.92171875 9.72804688 11.4528125 10.35453125 12 11 C11.67 11.66 11.34 12.32 11 13 C8.33333333 10.33333333 5.66666667 7.66666667 3 5 C2.41863281 4.45988281 1.83726562 3.91976562 1.23828125 3.36328125 C0 2 0 2 0 0 Z " fill="#4F742C" transform="translate(432,110)"/>
<path d="M0 0 C0.680625 0.721875 1.36125 1.44375 2.0625 2.1875 C4.16006249 4.30917241 6.34995143 6.00575951 8.8125 7.6875 C9.864375 8.450625 10.91625 9.21375 12 10 C12 10.66 12 11.32 12 12 C6.46721442 10.65871865 3.21578635 6.44835 0 2 C0 1.34 0 0.68 0 0 Z " fill="#4C6F2A" transform="translate(18,404)"/>
<path d="M0 0 C0.66 0.33 1.32 0.66 2 1 C1.38125 1.2475 0.7625 1.495 0.125 1.75 C-2.35068687 3.20628639 -2.95125002 4.37812506 -4 7 C-5.32 6.67 -6.64 6.34 -8 6 C-5.36 4.02 -2.72 2.04 0 0 Z " fill="#486928" transform="translate(85,104)"/>
<path d="M0 0 C-1.33332095 3.99996286 -3.4957827 4.83782337 -7 7 C-7.66 6.67 -8.32 6.34 -9 6 C-7.8803014 4.99406757 -6.7540588 3.9954151 -5.625 3 C-4.68527344 2.1646875 -4.68527344 2.1646875 -3.7265625 1.3125 C-2 0 -2 0 0 0 Z " fill="#496B29" transform="translate(83,412)"/>
</svg>
